{"glyphs":{":":{"x_min":0,"x_max":268,"ha":268,"o":""},"$":{"x_min":0,"x_max":507,"ha":507,"o":"m 216 -9 q 167 -3 126 16 q 84 36 57 66 l 75 95 q 80 102 86 106 q 92 109 101 109 q 107 109 116 103 q 126 96 140 87 q 154 78 174 70 q 194 61 221 58 l 234 234 q 206 241 178 251 q 150 261 128 278 q 106 294 93 319 q 79 344 79 381 q 79 408 90 434 q 101 460 123 481 q 145 502 178 516 q 211 530 256 532 l 263 632 l 312 632 l 305 531 q 346 525 380 510 q 414 494 437 471 l 417 439 q 414 433 409 429 q 405 426 398 426 q 393 426 385 431 q 376 436 365 443 q 354 450 338 457 q 322 463 300 466 l 289 300 q 317 292 346 282 q 374 272 397 256 q 419 240 433 216 q 447 192 447 156 q 447 123 434 94 q 421 65 397 43 q 374 21 340 7 q 307 -7 266 -10 l 259 -111 l 209 -111 z m 372 144 q 372 161 365 173 q 358 185 346 193 q 334 202 318 209 q 301 215 283 221 l 271 57 q 297 59 316 67 q 335 74 347 86 q 360 97 366 112 q 372 127 372 144 z m 159 388 q 159 373 165 362 q 171 350 182 342 q 193 333 208 326 q 223 320 240 314 l 251 467 q 226 465 208 458 q 191 451 180 440 q 169 429 164 416 q 159 403 159 388 z"},"?":{"x_min":0,"x_max":463,"ha":463,"o":"m 60 615 q 75 629 93 641 q 110 653 131 663 q 152 672 177 677 q 201 683 229 683 q 267 683 299 672 q 331 662 354 642 q 377 622 391 593 q 404 565 404 530 q 404 494 393 468 q 382 442 366 422 q 350 403 331 388 q 312 374 295 361 q 278 349 266 336 q 254 324 252 308 l 243 236 l 185 236 l 178 314 q 176 335 187 351 q 197 367 213 381 q 229 395 248 408 q 268 422 284 438 q 301 455 312 475 q 324 496 324 525 q 324 545 316 562 q 308 578 294 589 q 280 601 262 607 q 243 613 222 613 q 193 613 173 606 q 153 599 139 591 q 125 582 116 575 q 107 568 101 568 q 89 568 83 579 z m 144 52 q 144 64 149 75 q 153 86 161 95 q 169 103 180 108 q 191 112 204 112 q 216 112 227 108 q 238 103 246 95 q 254 86 259 75 q 264 64 264 52 q 264 40 259 29 q 254 18 246 10 q 238 2 227 -2 q 216 -7 204 -7 q 191 -7 180 -2 q 169 2 161 10 q 153 18 149 29 q 144 40 144 52 z"},"<":{"x_min":0,"x_max":498,"ha":498,"o":"m 45 334 l 410 524 l 410 463 q 410 455 406 449 q 403 443 393 438 l 184 332 q 166 323 141 317 q 165 312 184 302 l 394 196 q 403 191 406 185 q 410 179 410 171 l 410 110 l 45 299 z"},"'":{"x_min":0,"x_max":221,"ha":221,"o":"m 147 675 l 147 539 l 139 466 q 138 451 131 442 q 125 434 110 434 q 97 434 90 442 q 83 450 82 466 l 73 539 l 73 675 z"},"=":{"x_min":0,"x_max":498,"ha":498,"o":"m 46 271 l 452 271 l 452 206 l 46 206 z m 46 429 l 452 429 l 452 364 l 46 364 z"},"a":{"x_min":0,"x_max":479,"ha":479,"o":"m 379 0 q 367 0 360 4 q 353 8 351 20 l 340 64 q 321 47 303 34 q 286 21 266 11 q 247 2 224 -3 q 202 -7 175 -7 q 147 -7 123 0 q 99 8 80 24 q 62 40 52 63 q 41 87 41 119 q 41 147 56 174 q 72 200 106 220 q 141 241 197 254 q 252 267 333 269 l 333 305 q 333 361 310 389 q 286 417 241 417 q 210 417 190 409 q 169 401 154 392 q 139 383 128 375 q 117 367 105 367 q 97 367 90 372 q 84 376 80 383 l 64 410 q 104 448 150 467 q 195 486 251 486 q 291 486 322 473 q 354 460 375 436 q 396 412 406 379 q 417 346 417 305 l 417 0 z m 201 53 q 222 53 240 57 q 258 62 274 70 q 291 78 305 90 q 319 102 333 116 l 333 215 q 276 212 236 205 q 196 198 171 187 q 146 175 135 159 q 124 143 124 124 q 124 105 130 92 q 136 78 146 70 q 156 61 170 57 q 185 53 201 53 z"},"L":{"x_min":0,"x_max":420,"ha":420,"o":"m 156 75 l 404 75 l 404 0 l 67 0 l 67 642 l 156 642 z"},"3":{"x_min":0,"x_max":507,"ha":507,"o":""},";":{"x_min":0,"x_max":268,"ha":268,"o":""},"J":{"x_min":0,"x_max":319,"ha":319,"o":"m 263 222 q 263 168 252 126 q 241 83 220 54 q 198 24 167 9 q 135 -7 93 -7 q 74 -7 56 -4 q 37 -1 17 5 q 18 19 19 32 q 20 45 21 58 q 22 65 27 70 q 32 75 41 75 q 47 75 57 71 q 67 67 84 67 q 128 67 151 104 q 174 140 174 220 l 174 642 l 263 642 z"},"V":{"x_min":0,"x_max":567,"ha":567,"o":"m 3 642 l 75 642 q 86 642 94 636 q 101 630 104 621 l 263 171 q 269 156 275 138 q 280 121 285 101 q 289 121 294 138 q 299 156 305 171 l 463 621 q 466 629 474 635 q 481 642 493 642 l 564 642 l 324 0 l 244 0 z"},"\"":{"x_min":0,"x_max":401,"ha":401,"o":""},"7":{"x_min":0,"x_max":507,"ha":507,"o":""},"S":{"x_min":0,"x_max":459,"ha":459,"o":"m 389 541 q 382 527 369 527 q 362 527 352 534 q 342 542 327 551 q 313 560 293 568 q 272 575 244 575 q 217 575 197 568 q 177 560 163 547 q 150 533 143 515 q 136 498 136 477 q 136 450 149 433 q 161 415 181 403 q 202 390 228 381 q 253 372 280 362 q 307 352 333 340 q 359 327 379 308 q 399 290 412 262 q 424 235 424 195 q 424 153 411 116 q 397 79 371 52 q 345 24 307 9 q 269 -7 220 -7 q 161 -7 111 16 q 62 39 27 77 l 53 119 q 56 125 61 128 q 66 131 73 131 q 83 131 94 121 q 105 111 123 99 q 140 87 164 77 q 188 67 222 67 q 250 67 272 75 q 294 83 309 99 q 325 114 333 135 q 341 156 341 182 q 341 211 328 229 q 316 248 296 260 q 275 273 250 281 q 224 290 197 299 q 170 309 144 321 q 118 333 98 352 q 78 372 65 400 q 53 429 53 472 q 53 506 65 538 q 78 570 102 594 q 126 619 162 634 q 197 649 243 649 q 294 649 337 632 q 380 615 411 582 z"},"}":{"x_min":0,"x_max":314,"ha":314,"o":"m 215 200 q 215 176 219 153 q 222 130 227 107 q 231 84 235 61 q 238 37 238 13 q 238 -20 229 -47 q 219 -75 199 -94 q 180 -114 150 -125 q 121 -136 82 -136 l 57 -136 l 57 -98 q 57 -88 63 -84 q 70 -80 76 -80 l 85 -80 q 122 -80 142 -56 q 163 -33 163 7 q 163 34 160 58 q 156 83 152 106 q 148 129 145 152 q 142 175 142 199 q 142 216 147 231 q 152 247 162 259 q 171 271 184 280 q 197 289 213 293 q 197 297 184 306 q 171 314 162 327 q 152 339 147 355 q 142 370 142 388 q 142 411 145 434 q 148 457 152 480 q 156 503 160 528 q 163 552 163 579 q 163 619 142 643 q 122 667 85 667 l 76 667 q 70 667 63 671 q 57 675 57 685 l 57 723 l 82 723 q 121 723 150 712 q 180 701 199 681 q 219 661 229 634 q 238 606 238 574 q 238 549 235 526 q 231 502 227 479 q 222 457 219 433 q 215 410 215 386 q 215 356 231 338 q 247 319 278 319 l 278 268 q 247 268 231 249 q 215 230 215 200 z"},"Z":{"x_min":0,"x_max":468,"ha":468,"o":"m 444 642 l 444 609 q 444 593 435 580 l 135 72 l 438 72 l 438 0 l 27 0 l 27 35 q 27 42 30 48 q 32 55 36 61 l 336 569 l 44 569 l 44 642 z"},"x":{"x_min":0,"x_max":433,"ha":433,"o":"m 160 245 l 18 478 l 100 478 q 109 478 114 474 q 119 471 123 465 l 222 292 q 224 297 226 302 q 229 307 232 312 l 316 463 q 320 470 325 474 q 330 478 337 478 l 416 478 l 273 250 l 422 0 l 339 0 q 330 0 323 6 q 317 11 313 18 l 212 198 q 208 187 204 179 l 112 18 q 108 11 103 5 q 97 0 88 0 l 11 0 z"},")":{"x_min":0,"x_max":303,"ha":303,"o":"m 155 296 q 155 397 130 492 q 104 587 55 673 q 51 680 51 686 q 50 691 51 695 q 53 700 56 703 q 59 706 62 708 l 101 731 q 136 677 160 624 q 185 570 200 517 q 216 463 223 408 q 230 354 230 296 q 230 239 223 184 q 216 129 200 76 q 185 22 160 -31 q 136 -84 101 -139 l 62 -115 q 59 -113 56 -110 q 53 -107 51 -103 q 50 -99 51 -93 q 51 -88 55 -81 q 104 5 130 100 q 155 195 155 296 z"},"&":{"x_min":0,"x_max":682,"ha":682,"o":"m 320 683 q 359 683 390 671 q 422 659 445 639 q 468 619 481 593 q 495 567 496 539 l 443 528 q 435 526 429 530 q 422 533 419 542 q 416 555 408 568 q 401 581 389 592 q 376 603 360 610 q 343 617 320 617 q 296 617 276 609 q 257 602 243 588 q 229 575 222 557 q 214 539 214 518 q 214 485 231 456 q 247 426 284 391 l 483 193 q 502 225 513 260 q 524 294 528 330 q 530 349 548 349 l 600 349 q 600 294 583 242 q 565 189 534 144 l 679 0 l 596 0 q 582 0 573 3 q 565 7 555 17 l 484 86 q 438 43 379 18 q 319 -7 248 -7 q 209 -7 172 5 q 135 18 105 42 q 76 66 58 101 q 41 136 41 180 q 41 213 52 242 q 63 272 83 297 q 104 322 131 342 q 159 362 192 375 q 162 412 148 446 q 134 480 134 517 q 134 551 147 582 q 160 612 184 635 q 208 657 243 670 q 277 683 320 683 z m 263 62 q 317 62 360 81 q 403 101 436 133 l 231 333 q 180 306 154 269 q 128 231 128 187 q 128 157 140 134 q 151 110 170 94 q 189 79 214 70 q 238 62 263 62 z"},"_":{"x_min":0,"x_max":498,"ha":498,"o":"m 498 -77 l 498 -134 l 0 -134 l 0 -77 z"},"v":{"x_min":0,"x_max":452,"ha":452,"o":"m 265 0 l 187 0 l 9 478 l 80 478 q 90 478 97 472 q 104 467 106 460 l 208 154 q 214 137 219 121 q 223 105 227 88 q 230 104 235 121 q 240 137 247 154 l 350 460 q 353 467 360 472 q 366 478 375 478 l 442 478 z"},"O":{"x_min":0,"x_max":662,"ha":662,"o":"m 627 321 q 627 249 606 188 q 584 128 546 85 q 507 42 452 17 q 398 -7 332 -7 q 266 -7 211 17 q 156 42 117 85 q 78 128 57 188 q 35 249 35 321 q 35 393 57 453 q 78 513 117 557 q 156 601 211 625 q 266 649 332 649 q 398 649 452 625 q 507 601 546 557 q 584 513 606 453 q 627 393 627 321 z m 536 321 q 536 379 522 426 q 507 473 481 505 q 454 538 416 555 q 378 572 332 572 q 285 572 247 555 q 209 538 182 505 q 155 473 141 426 q 126 379 126 321 q 126 262 141 216 q 155 169 182 136 q 209 104 247 87 q 285 70 332 70 q 378 70 416 87 q 454 104 481 136 q 507 169 522 216 q 536 262 536 321 z"},"(":{"x_min":0,"x_max":303,"ha":303,"o":"m 148 296 q 148 195 174 100 q 199 5 248 -81 q 256 -95 252 -103 q 248 -111 241 -115 l 203 -139 q 167 -84 143 -31 q 118 22 103 76 q 87 129 80 184 q 73 239 73 296 q 73 354 80 408 q 87 463 103 517 q 118 570 143 624 q 167 677 203 731 l 241 708 q 248 703 252 695 q 256 687 248 673 q 199 587 174 492 q 148 397 148 296 z"},"C":{"x_min":0,"x_max":533,"ha":533,"o":"m 466 134 q 473 134 479 128 l 514 90 q 479 44 428 19 q 377 -7 307 -7 q 244 -7 194 17 q 143 41 107 84 q 71 127 52 188 q 33 248 33 321 q 33 394 53 454 q 74 514 111 558 q 148 601 200 625 q 251 649 314 649 q 376 649 423 627 q 470 605 505 567 l 476 526 q 473 522 469 519 q 464 516 458 516 q 449 516 439 525 q 429 534 413 544 q 397 555 373 563 q 349 572 313 572 q 271 572 237 555 q 202 538 177 506 q 151 473 137 427 q 124 380 124 321 q 124 261 138 214 q 153 167 178 135 q 204 103 238 86 q 272 69 312 69 q 336 69 356 72 q 375 76 391 83 q 408 90 422 101 q 437 112 451 127 q 458 134 466 134 z"},"W":{"x_min":0,"x_max":890,"ha":890,"o":"m 6 642 l 81 642 q 92 642 100 636 q 108 630 110 621 l 235 178 q 242 155 248 124 q 250 139 254 153 q 257 167 261 179 l 404 621 q 407 629 415 635 q 423 642 435 642 l 460 642 q 472 642 480 636 q 487 630 490 621 l 633 178 q 637 167 641 153 q 644 140 647 125 q 650 140 653 153 q 656 167 659 178 l 783 621 q 786 629 794 635 q 803 642 814 642 l 884 642 l 689 0 l 608 0 l 454 486 q 452 493 449 501 q 447 509 445 519 q 443 509 441 501 q 438 493 436 486 l 281 0 l 201 0 z"},"A":{"x_min":0,"x_max":579,"ha":579,"o":"m 575 0 l 506 0 q 495 0 488 6 q 480 12 477 21 l 422 175 l 157 175 l 103 21 q 100 13 92 6 q 84 0 73 0 l 4 0 l 245 642 l 335 642 z m 180 238 l 399 238 l 309 497 q 304 508 299 524 q 294 540 290 558 q 285 539 280 523 q 275 508 271 496 z"},"f":{"x_min":0,"x_max":305,"ha":305,"o":"m 83 0 l 83 406 l 35 412 q 24 413 18 418 q 12 424 12 434 l 12 469 l 83 469 l 83 514 q 83 555 94 587 q 105 619 125 641 q 146 663 175 674 q 205 686 241 686 q 256 686 271 683 q 285 681 298 676 l 296 633 q 295 622 284 621 q 273 620 255 620 q 235 620 219 614 q 202 609 190 596 q 179 583 172 563 q 166 542 166 512 l 166 469 l 294 469 l 294 406 l 169 406 l 169 0 z"},"Q":{"x_min":0,"x_max":673,"ha":673,"o":"m 632 321 q 632 236 604 169 q 575 102 523 58 l 689 -132 l 615 -132 q 599 -132 586 -127 q 574 -123 563 -111 l 454 16 q 400 -7 337 -7 q 271 -7 216 17 q 162 42 123 85 q 83 128 62 188 q 41 249 41 321 q 41 393 62 453 q 83 513 123 557 q 162 601 216 625 q 271 649 337 649 q 403 649 458 625 q 512 601 551 557 q 590 513 611 453 q 632 393 632 321 z m 542 321 q 542 379 527 426 q 513 473 486 505 q 459 538 422 555 q 384 572 337 572 q 290 572 252 555 q 214 538 188 505 q 161 473 146 426 q 132 379 132 321 q 132 262 146 216 q 161 169 188 136 q 214 104 252 87 q 290 70 337 70 q 384 70 422 87 q 459 104 486 136 q 513 169 527 216 q 542 262 542 321 z"},"w":{"x_min":0,"x_max":715,"ha":715,"o":"m 10 478 l 78 478 q 88 478 95 472 q 102 467 104 459 l 189 155 q 194 138 197 122 q 201 106 203 91 q 207 106 212 122 q 217 138 222 155 l 317 462 q 319 469 326 474 q 332 479 341 479 l 378 479 q 388 479 394 474 q 400 469 402 462 l 495 155 q 500 139 505 123 q 509 106 513 91 q 519 123 528 155 l 616 460 q 618 468 625 473 q 631 478 640 478 l 705 478 l 555 0 l 486 0 q 474 0 469 16 l 369 338 q 365 349 363 360 q 360 371 357 382 q 355 371 353 360 q 350 349 346 337 l 245 16 q 239 0 226 0 l 161 0 z"},"-":{"x_min":0,"x_max":306,"ha":306,"o":"m 37 319 l 270 319 l 270 246 l 37 246 z"},"E":{"x_min":0,"x_max":488,"ha":488,"o":"m 446 642 l 446 569 l 160 569 l 160 359 l 390 359 l 390 289 l 160 289 l 160 72 l 446 72 l 446 0 l 71 0 l 71 642 z"},"s":{"x_min":0,"x_max":391,"ha":391,"o":"m 332 398 q 326 388 314 388 q 307 388 298 393 q 290 398 278 405 q 266 411 249 416 q 233 421 210 421 q 191 421 176 416 q 161 411 150 401 q 140 392 134 380 q 128 367 128 353 q 128 334 138 322 q 147 310 164 301 q 180 292 200 285 q 221 278 243 271 q 264 264 285 254 q 306 244 322 230 q 338 216 348 196 q 357 175 357 146 q 357 113 346 85 q 335 57 313 37 q 292 16 260 4 q 228 -7 186 -7 q 139 -7 100 9 q 61 25 34 51 l 54 83 q 58 89 63 93 q 69 96 77 96 q 86 96 95 90 q 104 83 116 75 q 128 67 146 60 q 164 54 190 54 q 212 54 229 60 q 245 66 256 77 q 267 87 272 102 q 277 116 277 131 q 277 151 267 164 q 257 177 241 186 q 225 195 204 202 q 184 208 162 216 q 140 224 119 233 q 99 243 83 258 q 66 272 56 294 q 46 315 46 346 q 46 374 57 399 q 68 424 88 443 q 109 462 139 474 q 169 485 208 485 q 253 485 289 470 q 325 456 351 429 z"},">":{"x_min":0,"x_max":498,"ha":498,"o":"m 453 299 l 88 110 l 88 171 q 88 187 105 196 l 314 302 q 333 312 357 317 q 333 323 314 332 l 105 438 q 96 443 92 449 q 88 455 88 463 l 88 524 l 453 334 z"},"l":{"x_min":0,"x_max":229,"ha":229,"o":"m 158 694 l 158 0 l 72 0 l 72 694 z"},"8":{"x_min":0,"x_max":507,"ha":507,"o":"m 253 -7 q 206 -7 167 6 q 127 20 99 45 q 71 70 56 105 q 40 141 40 185 q 40 250 71 292 q 102 334 162 352 q 112 372 87 411 q 62 451 62 505 q 62 542 75 575 q 89 607 115 632 q 140 656 175 669 q 210 683 253 683 q 296 683 332 669 q 367 656 392 632 q 417 607 431 575 q 445 542 445 505 q 445 451 420 411 q 395 372 345 352 q 405 334 436 292 q 467 250 467 185 q 467 141 451 105 q 436 70 407 45 q 379 20 340 6 q 301 -7 253 -7 z m 253 61 q 283 61 306 70 q 329 79 345 96 q 361 112 370 135 q 378 159 378 187 q 378 221 368 246 q 358 270 341 286 q 324 301 302 309 q 279 316 253 316 q 228 316 205 309 q 182 301 165 286 q 148 270 138 246 q 128 221 128 187 q 128 159 137 135 q 145 112 161 96 q 177 79 200 70 q 224 61 253 61 z m 253 384 q 283 384 303 394 q 324 404 337 421 q 350 438 355 459 q 361 481 361 504 q 361 527 354 548 q 348 568 334 584 q 321 599 301 608 q 280 617 253 617 q 227 617 206 608 q 186 599 173 584 q 159 568 152 548 q 146 527 146 504 q 146 481 151 459 q 157 438 170 421 q 183 404 203 394 q 224 384 253 384 z"},"\\":{"x_min":0,"x_max":386,"ha":386,"o":"m -8 694 l 28 694 q 44 694 56 686 q 67 678 74 663 l 385 -42 l 350 -42 q 336 -42 323 -34 q 309 -26 302 -10 z"},"e":{"x_min":0,"x_max":498,"ha":498,"o":"m 261 485 q 304 485 341 471 q 377 457 404 429 q 431 402 446 362 q 461 323 461 271 q 461 251 457 245 q 453 238 441 238 l 122 238 q 123 193 134 160 q 145 126 165 104 q 185 83 212 72 q 239 61 273 61 q 304 61 327 68 q 350 75 366 83 q 383 92 394 99 q 405 106 414 106 q 419 106 423 104 q 427 102 430 98 l 454 67 q 438 48 416 34 q 395 20 370 11 q 345 2 318 -2 q 292 -7 266 -7 q 216 -7 174 10 q 132 26 101 59 q 71 91 54 139 q 37 187 37 249 q 37 298 52 342 q 67 385 96 417 q 125 449 167 467 q 209 485 261 485 z m 263 422 q 203 422 168 387 q 133 352 124 291 l 384 291 q 384 320 376 344 q 368 368 352 385 q 336 403 314 413 q 291 422 263 422 z"},"b":{"x_min":0,"x_max":525,"ha":525,"o":"m 70 0 l 70 694 l 156 694 l 156 410 q 186 444 223 465 q 261 485 310 485 q 351 485 384 469 q 417 453 441 422 q 464 392 477 349 q 489 306 489 251 q 489 193 475 146 q 461 98 435 64 q 408 30 371 12 q 333 -7 286 -7 q 239 -7 208 11 q 176 29 152 61 l 147 18 q 145 0 126 0 z m 281 417 q 241 417 211 398 q 181 380 156 346 l 156 115 q 179 84 206 72 q 232 60 265 60 q 331 60 366 107 q 401 154 401 248 q 401 335 370 376 q 338 417 281 417 z"},"%":{"x_min":0,"x_max":715,"ha":715,"o":"m 322 512 q 322 473 310 442 q 298 411 278 389 q 258 367 232 356 q 206 345 177 345 q 146 345 119 356 q 93 367 73 389 q 54 411 43 442 q 32 473 32 512 q 32 553 43 584 q 54 616 73 638 q 93 660 119 671 q 146 682 177 682 q 208 682 234 671 q 261 660 280 638 q 300 616 311 584 q 322 553 322 512 z m 255 512 q 255 543 249 565 q 243 586 232 600 q 222 614 207 620 q 193 626 177 626 q 161 626 146 620 q 132 614 122 600 q 111 586 105 565 q 100 543 100 512 q 100 482 105 461 q 111 439 122 426 q 132 413 146 407 q 161 401 177 401 q 193 401 207 407 q 222 413 232 426 q 243 439 249 461 q 255 482 255 512 z m 683 160 q 683 120 671 89 q 659 58 639 36 q 619 14 593 3 q 566 -8 538 -8 q 507 -8 480 3 q 454 14 434 36 q 415 58 404 89 q 393 120 393 160 q 393 200 404 232 q 415 263 434 285 q 454 307 480 318 q 507 330 538 330 q 568 330 595 318 q 622 307 641 285 q 660 263 671 232 q 683 200 683 160 z m 616 160 q 616 190 610 212 q 604 234 593 247 q 582 261 568 267 q 554 273 538 273 q 521 273 507 267 q 493 261 483 247 q 472 234 466 212 q 460 190 460 160 q 460 129 466 108 q 472 86 483 73 q 493 60 507 54 q 521 48 538 48 q 554 48 568 54 q 582 60 593 73 q 604 86 610 108 q 616 129 616 160 z m 151 25 q 143 10 131 5 q 120 0 106 0 l 69 0 l 551 646 q 560 660 571 668 q 582 675 598 675 l 636 675 z"},"m":{"x_min":0,"x_max":799,"ha":799,"o":"m 72 0 l 72 478 l 123 478 q 132 478 138 473 q 144 469 145 460 l 152 411 q 166 427 180 441 q 195 454 212 464 q 229 474 249 479 q 269 485 291 485 q 340 485 371 458 q 402 431 415 386 q 425 412 442 431 q 459 449 479 461 q 500 474 523 479 q 547 485 571 485 q 649 485 692 438 q 735 391 735 304 l 735 0 l 649 0 l 649 304 q 649 360 624 388 q 598 417 551 417 q 529 417 510 410 q 491 403 477 388 q 462 374 454 353 q 445 332 445 304 l 445 0 l 359 0 l 359 304 q 359 361 336 389 q 312 417 266 417 q 235 417 208 401 q 180 384 158 355 l 158 0 z"},"#":{"x_min":0,"x_max":498,"ha":498,"o":"m 347 199 l 312 0 l 273 0 q 260 0 252 10 q 244 21 247 37 l 276 199 l 176 199 l 147 33 q 144 15 133 8 q 122 0 108 0 l 70 0 l 105 199 l 46 199 q 33 199 27 207 q 21 215 24 234 l 28 262 l 114 262 l 140 414 l 43 414 l 49 450 q 52 464 60 470 q 69 477 87 477 l 148 477 l 179 645 q 181 659 192 667 q 202 675 216 675 l 255 675 l 219 477 l 320 477 l 355 675 l 394 675 q 407 675 415 667 q 423 658 421 644 l 391 477 l 481 477 l 475 441 q 472 427 463 420 q 455 414 436 414 l 382 414 l 355 262 l 428 262 q 441 262 447 254 q 453 246 450 227 l 446 199 z m 185 262 l 285 262 l 312 414 l 211 414 z"},",":{"x_min":0,"x_max":250,"ha":250,"o":"m 68 59 q 68 69 73 79 q 77 89 84 96 q 91 104 102 108 q 112 112 125 112 q 140 112 151 107 q 162 102 169 93 q 176 83 180 71 q 184 59 184 44 q 184 23 177 0 q 171 -22 160 -45 q 148 -67 132 -89 q 115 -110 94 -128 l 79 -114 q 73 -108 73 -101 q 73 -95 80 -88 q 84 -83 91 -74 q 99 -65 106 -54 q 114 -43 120 -29 q 126 -16 129 0 l 124 0 q 99 0 84 17 q 68 33 68 59 z"},"n":{"x_min":0,"x_max":525,"ha":525,"o":"m 68 0 l 68 478 l 120 478 q 129 478 135 473 q 141 469 142 460 l 149 409 q 180 443 218 464 q 256 485 306 485 q 345 485 374 472 q 404 459 424 435 q 444 412 454 378 q 464 345 464 304 l 464 0 l 378 0 l 378 304 q 378 357 354 387 q 330 417 281 417 q 244 417 212 400 q 181 382 154 352 l 154 0 z"},"h":{"x_min":0,"x_max":525,"ha":525,"o":"m 70 0 l 70 694 l 156 694 l 156 415 q 186 447 222 466 q 258 485 306 485 q 345 485 375 472 q 404 459 424 435 q 444 412 454 378 q 464 345 464 304 l 464 0 l 378 0 l 378 304 q 378 357 354 387 q 331 417 281 417 q 245 417 213 399 q 182 382 156 351 l 156 0 z"},"z":{"x_min":0,"x_max":395,"ha":395,"o":"m 366 441 q 366 432 363 424 q 359 415 354 408 l 128 67 l 358 67 l 358 0 l 29 0 l 29 36 q 29 42 32 50 q 36 59 41 66 l 268 411 l 42 411 l 42 478 l 366 478 z"},"B":{"x_min":0,"x_max":544,"ha":544,"o":"m 70 0 l 70 642 l 266 642 q 323 642 364 630 q 404 619 430 597 q 457 575 469 544 q 481 513 481 474 q 481 451 474 429 q 467 407 453 388 q 438 370 417 354 q 396 339 366 330 q 433 317 467 280 q 501 243 501 183 q 501 142 487 108 q 473 75 445 51 q 418 26 378 13 q 338 0 287 0 z m 159 292 l 159 70 l 286 70 q 319 70 344 79 q 368 87 383 103 q 398 118 406 139 q 413 160 413 185 q 413 234 382 263 q 351 292 286 292 z m 159 354 l 263 354 q 295 354 320 363 q 344 371 360 385 q 376 399 385 419 q 393 439 393 463 q 393 520 362 546 q 332 572 266 572 l 159 572 z"},"K":{"x_min":0,"x_max":520,"ha":520,"o":"m 149 361 l 175 361 q 189 361 198 366 q 208 370 214 380 l 380 621 q 389 632 398 637 q 408 642 422 642 l 498 642 l 303 366 q 287 345 270 336 q 292 329 311 305 l 512 0 l 434 0 q 418 0 410 5 q 403 10 396 19 l 226 272 q 218 284 209 288 q 200 293 182 293 l 149 293 l 149 0 l 61 0 l 61 642 l 149 642 z"},"R":{"x_min":0,"x_max":543,"ha":543,"o":"m 161 267 l 161 0 l 72 0 l 72 642 l 248 642 q 306 642 349 629 q 392 617 419 594 q 447 570 460 537 q 473 504 473 463 q 473 430 463 400 q 453 371 434 348 q 416 324 388 307 q 361 291 326 282 q 334 276 342 270 q 349 263 356 254 l 528 0 l 449 0 q 426 0 414 18 l 262 247 q 254 257 246 262 q 237 267 220 267 z m 161 332 l 244 332 q 279 332 306 341 q 333 350 351 366 q 369 383 378 406 q 387 429 387 457 q 387 572 248 572 l 161 572 z"},"T":{"x_min":0,"x_max":487,"ha":487,"o":"m 476 642 l 476 567 l 289 567 l 289 0 l 199 0 l 199 567 l 12 567 l 12 642 z"},"P":{"x_min":0,"x_max":517,"ha":517,"o":"m 161 239 l 161 0 l 72 0 l 72 642 l 256 642 q 314 642 358 627 q 401 613 429 587 q 458 562 471 525 q 485 488 485 442 q 485 397 470 360 q 456 323 427 296 q 397 269 355 254 q 312 239 256 239 z m 161 310 l 256 310 q 290 310 316 319 q 343 329 361 347 q 378 364 387 389 q 396 413 396 442 q 396 504 362 538 q 327 572 256 572 l 161 572 z"},"|":{"x_min":0,"x_max":460,"ha":460,"o":"m 197 723 l 264 723 l 264 -165 l 197 -165 z"},"t":{"x_min":0,"x_max":335,"ha":335,"o":"m 204 -7 q 148 -7 119 24 q 89 56 89 115 l 89 406 l 34 406 q 27 406 22 411 q 17 416 17 425 l 17 459 l 92 469 l 112 616 q 113 624 118 628 q 123 632 131 632 l 175 632 l 175 469 l 306 469 l 306 406 l 175 406 l 175 121 q 175 92 188 77 q 202 62 223 62 q 236 62 245 66 q 254 69 260 74 q 267 78 271 82 q 276 85 280 85 q 284 85 287 83 q 290 81 292 77 l 317 36 q 295 15 266 4 q 236 -7 204 -7 z"},"M":{"x_min":0,"x_max":855,"ha":855,"o":"m 408 234 q 414 223 419 211 q 424 199 429 187 q 434 200 439 211 q 444 223 450 234 l 677 627 q 683 637 689 639 q 696 642 708 642 l 773 642 l 773 0 l 695 0 l 695 468 q 695 478 696 490 q 696 502 697 514 l 468 112 q 457 92 436 92 l 423 92 q 402 92 391 112 l 157 514 q 160 489 160 468 l 160 0 l 82 0 l 82 642 l 147 642 q 159 642 165 639 q 172 637 178 626 l 408 234 z"},"g":{"x_min":0,"x_max":471,"ha":471,"o":"m 226 485 q 255 485 281 479 q 307 472 328 459 l 453 459 l 453 427 q 453 410 434 407 l 383 400 q 398 369 398 332 q 398 296 385 268 q 372 240 349 220 q 326 200 295 189 q 263 178 226 178 q 194 178 168 185 q 154 176 147 165 q 140 155 140 145 q 140 127 153 119 q 167 111 188 107 q 209 103 237 102 q 264 101 293 99 q 321 97 349 92 q 376 87 397 75 q 419 63 432 42 q 445 21 445 -12 q 445 -42 431 -71 q 416 -100 388 -123 q 361 -145 321 -158 q 281 -172 231 -172 q 181 -172 143 -162 q 105 -151 81 -134 q 56 -116 43 -93 q 31 -70 31 -45 q 31 -10 52 14 q 73 39 109 53 q 89 62 78 78 q 66 94 66 121 q 66 142 81 165 q 95 188 125 203 q 91 223 72 255 q 52 288 52 332 q 52 367 65 395 q 78 423 101 444 q 124 464 156 475 q 188 485 226 485 z m 366 -26 q 366 -9 357 2 q 348 13 333 19 q 317 25 296 28 q 276 30 253 32 q 230 33 206 34 q 183 35 161 39 q 137 26 122 8 q 106 -10 106 -35 q 106 -51 114 -64 q 121 -78 136 -88 q 152 -98 176 -104 q 200 -110 232 -110 q 265 -110 290 -104 q 314 -97 332 -86 q 349 -75 357 -60 q 366 -44 366 -26 z m 226 234 q 273 234 297 261 q 321 287 321 330 q 321 373 297 399 q 273 424 226 424 q 179 424 155 399 q 131 373 131 330 q 131 309 137 291 q 143 274 155 261 q 167 249 185 241 q 203 234 226 234 z"},"j":{"x_min":0,"x_max":239,"ha":239,"o":""},"i":{"x_min":0,"x_max":229,"ha":229,"o":""},"y":{"x_min":0,"x_max":453,"ha":453,"o":"m 200 -141 q 196 -150 189 -156 q 183 -161 170 -161 l 106 -161 l 188 28 l 5 478 l 80 478 q 91 478 97 472 q 103 467 105 460 l 217 161 q 221 151 224 141 q 228 130 230 120 q 233 131 237 141 q 241 152 245 162 l 353 460 q 355 467 362 472 q 369 478 377 478 l 446 478 z"},"@":{"x_min":0,"x_max":894,"ha":894,"o":"m 609 87 q 573 87 550 105 q 527 123 520 159 q 493 122 461 105 q 429 89 392 89 q 364 89 343 99 q 322 108 308 125 q 294 143 288 166 q 281 190 281 217 q 281 244 288 271 q 294 299 308 324 q 321 350 342 372 q 362 394 388 410 q 415 427 448 436 q 481 446 521 446 q 553 446 577 441 q 601 436 622 426 l 578 256 q 569 221 569 198 q 569 176 576 164 q 583 151 595 146 q 607 142 622 142 q 645 142 665 155 q 686 168 701 192 q 717 216 726 250 q 735 283 735 324 q 735 389 715 438 q 694 487 657 519 q 621 552 572 568 q 522 584 464 584 q 401 584 346 561 q 292 537 250 494 q 209 452 186 394 q 163 336 163 268 q 163 188 188 127 q 213 67 256 26 q 300 -15 358 -35 q 417 -56 484 -56 q 556 -56 611 -41 q 666 -25 706 -1 q 715 4 722 2 q 729 0 733 -9 l 745 -41 q 695 -74 630 -93 q 565 -113 484 -113 q 402 -113 332 -87 q 262 -61 210 -12 q 159 37 129 108 q 100 179 100 268 q 100 319 113 367 q 125 415 149 456 q 172 498 206 531 q 239 565 279 590 q 320 614 367 628 q 414 641 464 641 q 530 641 590 620 q 650 599 696 558 q 742 518 770 458 q 797 399 797 324 q 797 273 783 230 q 769 187 743 155 q 718 123 684 105 q 649 87 609 87 z m 409 145 q 423 145 438 150 q 453 154 467 166 q 480 178 492 198 q 503 218 511 248 l 547 387 q 529 391 507 391 q 473 391 443 376 q 414 362 393 338 q 372 313 360 282 q 348 251 348 219 q 348 186 363 165 q 378 145 409 145 z"},".":{"x_min":0,"x_max":252,"ha":252,"o":""},"p":{"x_min":0,"x_max":525,"ha":525,"o":"m 69 -161 l 69 478 l 120 478 q 129 478 135 473 q 141 469 142 460 l 150 404 q 181 441 220 463 q 259 486 310 486 q 351 486 384 470 q 417 454 440 423 q 464 393 477 347 q 489 302 489 242 q 489 189 475 144 q 461 98 434 65 q 408 31 370 12 q 332 -7 284 -7 q 240 -7 209 8 q 179 22 155 49 l 155 -161 z m 281 417 q 241 417 211 398 q 180 380 155 346 l 155 115 q 177 84 204 72 q 231 60 265 60 q 330 60 365 107 q 401 154 401 242 q 401 289 393 322 q 385 355 369 376 q 354 397 332 407 q 310 417 281 417 z"},"X":{"x_min":0,"x_max":519,"ha":519,"o":"m 199 329 l 13 642 l 102 642 q 111 642 116 638 q 120 635 124 629 l 265 379 q 269 388 273 394 l 403 628 q 407 634 411 638 q 416 642 423 642 l 508 642 l 321 334 l 514 0 l 425 0 q 416 0 410 5 q 405 11 401 17 l 256 278 q 253 271 250 266 l 111 17 q 107 10 102 5 q 97 0 88 0 l 5 0 z"},"*":{"x_min":0,"x_max":498,"ha":498,"o":"m 227 406 l 227 499 q 227 507 228 515 q 229 523 233 531 q 228 524 222 519 q 216 515 208 510 l 127 463 l 106 500 l 187 546 q 195 551 203 554 q 211 557 220 558 q 204 559 187 569 l 106 617 l 127 653 l 208 606 q 225 596 235 581 q 227 597 227 617 l 227 710 l 270 710 l 270 618 q 270 608 268 600 q 267 592 264 584 q 273 596 290 606 l 370 653 l 391 617 l 311 570 q 302 565 295 562 q 287 559 279 558 q 287 557 295 554 q 302 551 311 546 l 391 499 l 371 463 l 290 510 q 281 515 275 520 q 268 525 263 532 q 270 516 270 499 l 270 406 z"},"Y":{"x_min":0,"x_max":487,"ha":487,"o":"m 288 256 l 288 0 l 199 0 l 199 255 l 0 642 l 78 642 q 89 642 96 636 q 104 630 108 621 l 218 374 q 227 358 233 345 q 239 332 244 318 q 249 332 255 345 q 261 358 270 373 l 378 621 q 382 628 390 635 q 397 642 408 642 l 487 642 z"},"c":{"x_min":0,"x_max":423,"ha":423,"o":"m 375 392 q 372 386 368 384 q 364 381 357 381 q 350 381 342 387 q 334 393 323 400 q 311 407 294 413 q 277 418 253 418 q 221 418 196 406 q 171 394 155 370 q 139 347 130 314 q 122 281 122 239 q 122 196 131 163 q 140 129 156 106 q 173 83 196 72 q 220 60 249 60 q 277 60 295 67 q 313 74 326 83 q 338 92 346 99 q 354 106 363 106 q 373 106 378 98 l 403 67 q 388 48 369 34 q 350 20 328 11 q 306 2 282 -2 q 258 -7 234 -7 q 192 -7 155 10 q 119 26 92 58 q 64 89 49 135 q 34 181 34 239 q 34 292 48 338 q 62 383 89 416 q 116 448 156 467 q 196 485 248 485 q 296 485 333 469 q 370 452 398 423 z"},"!":{"x_min":0,"x_max":326,"ha":326,"o":"m 205 675 l 205 406 q 205 384 204 364 q 204 344 202 324 q 201 303 198 282 q 196 260 193 236 l 135 236 q 133 260 131 282 q 128 303 127 324 q 125 344 124 364 q 123 384 123 406 l 123 675 z m 103 52 q 103 64 108 75 q 112 86 120 95 q 128 103 139 108 q 150 112 163 112 q 175 112 186 108 q 197 103 205 95 q 213 86 218 75 q 223 64 223 52 q 223 40 218 29 q 213 18 205 10 q 197 2 186 -2 q 175 -7 163 -7 q 150 -7 139 -2 q 128 2 120 10 q 112 18 108 29 q 103 40 103 52 z"},"/":{"x_min":0,"x_max":386,"ha":386,"o":"m 78 -10 q 71 -26 58 -34 q 44 -42 30 -42 l -6 -42 l 310 663 q 322 694 354 694 l 391 694 z"},"[":{"x_min":0,"x_max":307,"ha":307,"o":"m 78 -136 l 78 723 l 253 723 l 253 689 q 253 680 247 673 q 240 667 229 667 l 150 667 l 150 -80 l 229 -80 q 240 -80 247 -87 q 253 -93 253 -103 l 253 -136 z"},"6":{"x_min":0,"x_max":507,"ha":507,"o":"m 213 423 q 206 413 199 403 q 192 394 186 384 q 207 398 232 406 q 257 414 287 414 q 324 414 357 401 q 391 388 417 362 q 442 336 457 299 q 472 261 472 213 q 472 167 456 126 q 440 86 412 56 q 383 26 344 10 q 304 -7 255 -7 q 207 -7 168 9 q 129 25 102 55 q 75 85 60 128 q 45 171 45 224 q 45 268 63 318 q 82 368 121 425 l 278 655 q 284 664 296 669 q 308 675 324 675 l 400 675 z m 128 208 q 128 176 136 150 q 145 123 161 104 q 177 85 200 74 q 224 63 254 63 q 284 63 308 74 q 333 85 350 104 q 367 124 377 150 q 386 176 386 207 q 386 240 377 266 q 368 292 351 311 q 334 329 310 339 q 287 349 258 349 q 228 349 204 337 q 180 326 163 306 q 146 287 137 262 q 128 236 128 208 z"},"r":{"x_min":0,"x_max":349,"ha":349,"o":"m 64 0 l 64 478 l 113 478 q 127 478 133 472 q 138 467 139 454 l 145 384 q 167 431 199 458 q 231 486 277 486 q 292 486 305 483 q 318 479 329 472 l 322 409 q 321 396 309 396 q 302 396 289 399 q 277 402 262 402 q 240 402 223 395 q 206 389 193 376 q 179 363 169 344 q 159 326 150 302 l 150 0 z"},"2":{"x_min":0,"x_max":507,"ha":507,"o":""},"{":{"x_min":0,"x_max":314,"ha":314,"o":"m 100 200 q 100 230 84 249 q 67 268 36 268 l 36 319 q 67 319 84 338 q 100 356 100 386 q 100 410 96 433 q 93 457 88 479 q 83 502 80 526 q 76 549 76 574 q 76 606 86 634 q 96 661 115 681 q 135 701 164 712 q 193 723 232 723 l 258 723 l 258 685 q 258 675 251 671 q 244 667 239 667 l 229 667 q 193 667 172 643 q 151 619 151 579 q 151 552 155 528 q 158 503 162 480 q 166 457 169 434 q 173 411 173 388 q 173 370 167 355 q 162 339 153 327 q 144 314 130 306 q 117 297 102 293 q 117 289 130 280 q 144 271 153 259 q 162 247 167 231 q 173 216 173 199 q 173 175 169 152 q 166 129 162 106 q 158 83 155 58 q 151 34 151 7 q 151 -33 172 -56 q 193 -80 229 -80 l 239 -80 q 244 -80 251 -84 q 258 -88 258 -98 l 258 -136 l 232 -136 q 193 -136 164 -125 q 135 -114 115 -94 q 96 -75 86 -47 q 76 -20 76 13 q 76 37 80 61 q 83 84 88 107 q 93 130 96 153 q 100 176 100 200 z"},"9":{"x_min":0,"x_max":507,"ha":507,"o":""}," ":{"x_min":0,"x_max":226,"ha":226,"o":""},"I":{"x_min":0,"x_max":252,"ha":252,"o":"m 170 0 l 82 0 l 82 642 l 170 642 z"},"H":{"x_min":0,"x_max":623,"ha":623,"o":"m 555 0 l 465 0 l 465 291 l 158 291 l 158 0 l 68 0 l 68 642 l 158 642 l 158 356 l 465 356 l 465 642 l 555 642 z"},"4":{"x_min":0,"x_max":507,"ha":507,"o":""},"~":{"x_min":0,"x_max":498,"ha":498,"o":"m 333 290 q 364 290 381 309 q 398 329 398 362 l 468 362 q 468 331 459 304 q 450 277 434 258 q 417 239 394 229 q 370 218 339 218 q 314 218 290 226 q 266 234 244 243 q 222 252 202 260 q 182 268 165 268 q 134 268 117 248 q 100 228 100 195 l 30 195 q 30 227 39 253 q 48 279 64 298 q 81 317 104 328 q 128 338 159 338 q 184 338 208 331 q 232 323 254 314 q 276 305 296 297 q 316 290 333 290 z"},"D":{"x_min":0,"x_max":615,"ha":615,"o":"m 582 321 q 582 249 561 189 q 540 130 501 88 q 463 46 409 23 q 355 0 290 0 l 68 0 l 68 642 l 290 642 q 355 642 409 618 q 463 595 501 553 q 540 511 561 452 q 582 393 582 321 z m 491 321 q 491 379 477 426 q 462 472 436 504 q 410 536 373 553 q 335 570 290 570 l 157 570 l 157 72 l 290 72 q 335 72 373 89 q 410 105 436 137 q 462 169 477 216 q 491 262 491 321 z"},"^":{"x_min":0,"x_max":498,"ha":498,"o":"m 461 328 l 398 328 q 390 328 384 332 q 378 336 375 343 l 268 552 q 255 575 249 598 q 245 586 240 575 q 236 564 230 552 l 127 344 q 124 337 118 332 q 112 328 103 328 l 37 328 l 220 675 l 275 675 z"},"0":{"x_min":0,"x_max":507,"ha":507,"o":"m 481 321 q 481 237 463 175 q 446 113 415 73 q 384 33 343 13 q 301 -7 253 -7 q 205 -7 164 13 q 122 33 92 73 q 61 113 43 175 q 26 237 26 321 q 26 405 43 467 q 61 528 92 569 q 122 609 164 629 q 205 649 253 649 q 301 649 343 629 q 384 609 415 569 q 446 528 463 467 q 481 405 481 321 z m 396 321 q 396 394 384 444 q 373 493 353 523 q 333 554 307 567 q 281 580 253 580 q 225 580 199 567 q 173 554 154 523 q 134 493 122 444 q 110 394 110 321 q 110 248 122 198 q 134 148 154 118 q 173 88 199 75 q 225 62 253 62 q 281 62 307 75 q 333 88 353 118 q 373 148 384 198 q 396 248 396 321 z"},"F":{"x_min":0,"x_max":459,"ha":459,"o":"m 431 642 l 431 569 l 157 569 l 157 347 l 390 347 l 390 275 l 157 275 l 157 0 l 67 0 l 67 642 z"},"`":{"x_min":0,"x_max":291,"ha":291,"o":"m 147 683 q 163 683 171 678 q 179 673 185 662 l 255 548 l 206 548 q 196 548 190 551 q 184 554 177 562 l 66 683 z"},"k":{"x_min":0,"x_max":455,"ha":455,"o":"m 148 694 l 148 286 l 168 286 q 177 286 183 289 q 188 291 195 299 l 322 461 q 329 469 336 473 q 343 478 354 478 l 433 478 l 283 290 q 276 282 269 276 q 262 270 254 265 q 263 260 269 252 q 276 245 283 236 l 442 0 l 365 0 q 355 0 347 4 q 339 7 333 16 l 203 212 q 196 222 190 225 q 184 228 170 228 l 148 228 l 148 0 l 62 0 l 62 694 z"},"u":{"x_min":0,"x_max":525,"ha":525,"o":"m 147 478 l 147 173 q 147 120 171 90 q 195 61 245 61 q 281 61 313 78 q 344 95 371 125 l 371 478 l 457 478 l 457 0 l 405 0 q 396 0 391 4 q 385 8 384 18 l 376 68 q 345 34 307 13 q 270 -7 220 -7 q 181 -7 151 6 q 122 19 102 42 q 82 66 71 99 q 61 133 61 173 l 61 478 z"},"]":{"x_min":0,"x_max":307,"ha":307,"o":"m 54 723 l 229 723 l 229 -136 l 54 -136 l 54 -103 q 54 -93 60 -87 q 67 -80 78 -80 l 157 -80 l 157 667 l 78 667 q 67 667 60 673 q 54 680 54 689 z"},"U":{"x_min":0,"x_max":642,"ha":642,"o":"m 321 70 q 359 70 390 84 q 420 97 441 121 q 462 146 473 179 q 484 212 484 252 l 484 642 l 573 642 l 573 252 q 573 196 556 149 q 538 102 506 67 q 473 32 426 12 q 379 -7 321 -7 q 262 -7 216 12 q 169 32 136 67 q 104 102 86 149 q 68 196 68 252 l 68 642 l 157 642 l 157 252 q 157 212 168 179 q 179 146 200 121 q 221 97 252 84 q 282 70 321 70 z"},"o":{"x_min":0,"x_max":527,"ha":527,"o":"m 264 485 q 316 485 358 468 q 400 450 430 418 q 459 386 475 341 q 491 295 491 239 q 491 183 475 137 q 459 92 430 60 q 400 28 358 10 q 316 -7 264 -7 q 212 -7 170 10 q 127 28 98 60 q 68 92 52 137 q 37 183 37 239 q 37 295 52 341 q 68 386 98 418 q 127 450 170 468 q 212 485 264 485 z m 264 60 q 299 60 325 72 q 351 84 368 107 q 385 130 394 163 q 402 196 402 239 q 402 281 394 314 q 385 348 368 371 q 351 394 325 406 q 299 418 264 418 q 229 418 203 406 q 177 394 159 371 q 142 348 134 314 q 125 281 125 239 q 125 196 134 163 q 142 130 159 107 q 177 84 203 72 q 229 60 264 60 z"},"N":{"x_min":0,"x_max":646,"ha":646,"o":"m 119 642 q 130 642 136 639 q 142 636 149 626 l 498 146 q 497 158 496 170 q 495 181 495 191 l 495 642 l 573 642 l 573 0 l 528 0 q 518 0 511 3 q 504 7 497 16 l 148 494 q 149 483 150 473 q 150 462 150 453 l 150 0 l 72 0 l 72 642 l 119 642 z"},"+":{"x_min":0,"x_max":498,"ha":498,"o":"m 283 550 l 283 349 l 475 349 l 475 284 l 283 284 l 283 82 l 213 82 l 213 284 l 22 284 l 22 349 l 213 349 l 213 550 z"},"G":{"x_min":0,"x_max":631,"ha":631,"o":"m 579 62 q 532 27 479 10 q 426 -7 364 -7 q 289 -7 229 17 q 168 41 126 84 q 83 127 61 188 q 38 248 38 321 q 38 394 60 454 q 82 515 123 558 q 165 601 223 625 q 282 649 354 649 q 392 649 423 643 q 455 638 481 627 q 508 617 531 602 q 554 586 573 568 l 548 528 q 542 518 533 516 q 523 513 512 520 q 500 526 487 535 q 474 544 455 552 q 437 561 411 566 q 386 572 351 572 q 300 572 259 555 q 218 537 189 504 q 160 472 144 425 q 128 378 128 321 q 128 261 145 213 q 161 166 192 133 q 222 100 265 82 q 308 65 361 65 q 402 65 435 74 q 467 84 498 101 l 498 242 l 406 242 q 397 242 392 247 q 386 251 386 259 l 386 309 l 579 309 l 579 62 z"},"q":{"x_min":0,"x_max":525,"ha":525,"o":"m 457 478 l 457 -161 l 371 -161 l 371 70 q 341 35 303 14 q 265 -7 216 -7 q 175 -7 142 9 q 108 25 85 56 q 62 86 49 132 q 36 178 36 237 q 36 290 50 336 q 64 381 91 415 q 117 448 155 467 q 193 486 241 486 q 288 486 320 469 q 352 453 376 423 l 383 460 q 386 478 405 478 z m 244 62 q 284 62 314 81 q 345 100 371 133 l 371 364 q 349 394 321 407 q 293 420 261 420 q 195 420 160 373 q 125 325 125 237 q 125 191 133 158 q 141 125 156 103 q 171 82 194 72 q 216 62 244 62 z"},"d":{"x_min":0,"x_max":525,"ha":525,"o":"m 404 0 q 395 0 389 4 q 383 8 382 18 l 373 75 q 343 38 304 16 q 266 -7 215 -7 q 174 -7 141 9 q 108 25 85 56 q 62 86 49 132 q 36 178 36 237 q 36 290 50 336 q 64 381 90 415 q 117 448 155 467 q 192 486 240 486 q 284 486 314 471 q 345 457 369 430 l 369 694 l 455 694 l 455 0 z m 243 62 q 283 62 313 81 q 343 100 369 133 l 369 364 q 346 395 319 407 q 292 420 260 420 q 195 420 160 373 q 125 325 125 237 q 125 191 133 158 q 141 125 156 103 q 171 82 193 72 q 215 62 243 62 z"},"1":{"x_min":0,"x_max":507,"ha":507,"o":"m 125 62 l 258 62 l 258 496 q 258 515 259 535 l 150 439 q 139 430 128 433 q 117 436 112 442 l 86 478 l 273 644 l 340 644 l 340 62 l 462 62 l 462 0 l 125 0 z"},"5":{"x_min":0,"x_max":507,"ha":507,"o":""}}}
